<svg xmlns="http://www.w3.org/2000/svg" width="145.733" height="75.781" viewBox="0 0 145.733 75.781"><defs><style>.a,.b{fill:#fff;}.b{fill-rule:evenodd;}</style></defs><g transform="translate(-3657.656 3190)"><g transform="translate(3657.656 -3138.403)"><path class="a" d="M1535.68,1284.583a1.03,1.03,0,0,1,2.06.028Zm-6.811,8.685v-2.038h0l.348-.009.343-.025.338-.042.332-.058.327-.074.32-.089.314-.1.307-.119.3-.133.292-.146.284-.16.275-.172.266-.185.256-.2.247-.209.236-.22.226-.231.214-.241.2-.251.191-.26.178-.27.165-.278.152-.286.138-.294.124-.3.109-.309.094-.316.079-.322.063-.328.047-.334.031-.339.013-.344,2.06.028-.017.446-.04.441-.061.434-.083.428-.1.42-.123.412-.143.4-.162.394-.18.384-.2.374-.215.362-.232.351-.248.339-.264.327-.279.314-.293.3-.307.286-.321.271-.334.256-.346.241-.358.224-.369.208-.38.191-.39.173-.4.155-.41.136-.418.116-.426.1-.433.076-.44.055-.446.033-.451.011Zm-8.871-8.776h2.06l.009.348.026.343.043.337.06.332.076.326.092.319.107.313.122.306.136.3.15.29.164.282.177.273.19.264.2.255.214.245.226.234.237.223.248.212.257.2.267.188.276.175.285.162.293.149.3.135.309.12.316.106.323.091.329.075.335.059.341.043.346.026.352.009v2.038l-.455-.011-.45-.034-.444-.056-.437-.077-.429-.1-.422-.118-.413-.138-.4-.157-.393-.176-.383-.194-.371-.211-.36-.228-.348-.245-.335-.26-.322-.276-.308-.291-.293-.3-.279-.318-.263-.331-.247-.344-.231-.356-.214-.368-.2-.378-.178-.389-.159-.4-.14-.408-.12-.417-.1-.425-.078-.432-.056-.439-.034-.445-.012-.451Zm8.871-8.776v2.038h0l-.352.009-.346.026-.341.043-.335.059-.329.075-.323.091-.316.106-.309.12-.3.135-.294.149-.285.162-.276.175-.267.188-.257.2-.247.212-.237.223-.226.234-.214.245-.2.255-.19.264-.177.274-.164.282-.15.29-.136.3-.122.306-.107.313-.092.319-.076.326-.06.332-.043.337-.026.343-.009.348H1520l.012-.45.034-.445.056-.439.078-.432.1-.425.12-.417.139-.408.159-.4.178-.389.2-.379.214-.368.231-.356.247-.344.263-.331.279-.318.293-.3.308-.29.322-.276.335-.26.348-.245.36-.228.372-.211.383-.194.393-.176.4-.157.413-.138.422-.118.429-.1.437-.077.444-.056.45-.034.455-.011Zm2.658.4-.618,1.944-.062-.019-.062-.018-.062-.018-.062-.017-.063-.017-.062-.016-.063-.015-.063-.015-.063-.014-.063-.014-.063-.013-.063-.012-.064-.012-.064-.011-.063-.01-.064-.01-.064-.009-.063-.009-.064-.008-.065-.008-.064-.007-.064-.006-.065-.006-.064-.005-.064,0-.065,0-.064,0-.064,0-.065,0-.065,0h-.13v-2.038h.169l.085,0,.083,0,.085,0,.085,0,.083.005.085.006.084.007.083.008.084.008.084.009.083.01.083.01.084.012.083.012.083.013.084.014.083.015.082.015.083.016.083.017.082.018.082.018.082.019.082.02.082.021.082.022.081.022.081.023.081.024.081.025Zm0,0a1.017,1.017,0,0,1,.674,1.277,1.032,1.032,0,0,1-1.292.667Z" transform="translate(-1519.998 -1275.716)"/></g><g transform="translate(3673.336 -3138.406)"><path class="a" d="M1617.5,1276.713a1.03,1.03,0,0,1,2.06,0Zm2.058,10.771h-2.06v-10.771h2.06v10.771Zm0,4.76h-2.06v-4.76h2.06v4.76Zm0,0a1.03,1.03,0,0,1-2.06,0Z" transform="translate(-1617.497 -1275.694)"/></g><g transform="translate(3705.202 -3138.324)"><path class="a" d="M1817.706,1277.223h-2.063a1.032,1.032,0,0,1,2.063,0Zm-2.059,15.442v-15.442h2.063v15.442h-2.063Zm0,0h2.063a1.032,1.032,0,0,1-2.063,0Z" transform="translate(-1815.643 -1276.204)"/></g><g transform="translate(3699.842 -3138.367)"><path class="a" d="M1783.344,1277.956a1.009,1.009,0,1,1,0-2.017Zm10.728-2.013v2.017h-10.728v-2.017h10.728Zm0,0a1.009,1.009,0,1,1,0,2.017Z" transform="translate(-1782.314 -1275.939)"/></g><g transform="translate(3736.648 -3138.349)"><path class="a" d="M2011.177,1277.072a1.035,1.035,0,0,1,2.07,0Zm2.067,15.438h-2.07v-15.438h2.07v15.438Zm0,0a1.035,1.035,0,0,1-2.07,0Z" transform="translate(-2011.174 -1276.053)"/></g><g transform="translate(3736.995 -3130.63)"><path class="a" d="M2014.365,1326.084a1.018,1.018,0,1,1,0-2.036Zm11.564-2.034v2.036h-11.564v-2.036h11.564Zm0,0a1.018,1.018,0,1,1,0,2.036Z" transform="translate(-2013.335 -1324.048)"/></g><g transform="translate(3748.608 -3138.349)"><path class="a" d="M2085.546,1277.072a1.035,1.035,0,0,1,2.07,0Zm2.067,15.438h-2.07v-15.438h2.07v15.438Zm0,0a1.035,1.035,0,0,1-2.07,0Z" transform="translate(-2085.543 -1276.053)"/></g><g transform="translate(3767.16 -3138.43)"><path class="a" d="M2200.9,1276.563a1.024,1.024,0,0,1,2.047,0Zm2.044,15.618H2200.9v-15.618h2.047v15.618Zm0,0a1.023,1.023,0,0,1-2.047,0Z" transform="translate(-2200.901 -1275.544)"/></g><g transform="translate(3767.739 -3138.455)"><path class="a" d="M2215.506,1276.413a1.025,1.025,0,0,1,2.05,0Zm2.05.295-2.05-.015v-.279h2.05v.295Zm-9.541,8.153-.018-2.038h-.009l.4-.015.39-.031.384-.046.377-.061.37-.076.363-.09.354-.1.345-.117.337-.13.327-.143.316-.154.306-.166.295-.177.283-.187.271-.2.259-.207.246-.216.233-.224.219-.232.2-.239.19-.247.176-.253.16-.259.145-.265.129-.27.113-.276.1-.281.081-.285.064-.289.047-.293.029-.3.011-.3,2.05.015-.016.424-.041.419-.066.413-.09.406-.113.4-.135.39-.156.381-.177.371-.2.362-.217.351-.235.34-.253.328-.271.317-.286.3-.3.292-.318.279-.332.265L2214,1283l-.359.237-.372.223-.384.208-.4.193-.407.177-.417.161-.427.145-.437.128-.445.111-.453.093-.461.075-.468.056-.475.038-.481.018h-.009Zm-2.489-.009v-2.038H2208l.019,2.038h-2.489Zm0,0a1.019,1.019,0,1,1,0-2.038Z" transform="translate(-2204.501 -1275.394)"/></g><g transform="translate(3767.595 -3130.929)"><path class="a" d="M2215.92,1331.255h2.05a1.025,1.025,0,0,1-2.05,0Zm-8.5-9.064h.009l.535.02.528.042.521.063.513.084.5.1.495.124.485.143.474.162.463.18.452.2.439.215.426.232.412.248.4.265.383.28.367.3.352.31.334.324.316.339.3.352.279.365.259.378.238.39.217.4.194.412.171.423.147.433.122.442.1.45.07.458.042.464.014.47h-2.05l-.011-.348-.031-.342-.051-.338-.071-.333-.09-.327-.109-.322-.128-.316-.146-.311-.164-.3-.182-.3-.2-.29-.216-.283-.232-.275-.249-.266-.264-.256-.279-.247-.294-.236-.308-.225-.322-.214-.335-.2-.348-.189-.36-.176-.372-.163-.382-.148-.393-.134-.4-.119-.412-.1-.421-.087-.429-.07-.436-.053-.443-.035-.45-.017h.009l.019-2.038Zm-2.784.01h2.784l-.019,2.038h-2.765V1322.2Zm0,0v2.038a1.019,1.019,0,1,1,0-2.038Z" transform="translate(-2203.607 -1322.191)"/></g><g transform="translate(3785.646 -3138.402)"><path class="a" d="M2327.924,1290.442a1.036,1.036,0,0,1,1.394.42,1.014,1.014,0,0,1-.425,1.378Zm-3.205,2.83v-2.038h.1l.1,0,.1,0,.1-.006.1-.007.1-.009.1-.01.1-.012.1-.013.1-.015.1-.017.1-.018.1-.019.1-.021.1-.023.1-.024.1-.026.1-.027.1-.029.1-.03.1-.032.1-.033.1-.035.1-.036.1-.038.1-.039.1-.041.1-.042.095-.044.094-.045.094-.047.093-.048.969,1.8-.121.062-.122.061-.123.059-.123.057-.124.055-.125.053-.126.051-.126.049-.127.047-.128.045-.128.043-.129.041-.13.039-.13.038-.131.036-.131.033-.131.031-.133.03-.133.027-.133.026-.133.023-.134.022-.134.019-.135.018-.135.015-.135.013-.135.011-.135.009-.136.007-.136.005-.136,0h-.136Zm-8.871-8.776h2.06l.009.348.026.343.043.337.06.332.076.326.092.319.107.313.122.306.136.3.15.29.164.282.177.273.19.264.2.255.214.245.226.234.237.223.248.212.257.2.267.188.276.175.285.162.293.149.3.135.309.12.316.106.323.091.329.075.335.059.341.043.346.026.352.009v2.038l-.455-.011-.45-.034-.444-.056-.437-.077-.429-.1-.421-.118-.413-.138-.4-.157-.393-.176-.383-.194-.371-.212-.36-.228-.348-.245-.335-.26-.322-.276-.308-.29-.294-.3-.279-.318-.263-.331-.247-.344-.231-.356-.214-.368-.2-.378-.178-.389-.159-.4-.14-.408-.12-.417-.1-.425-.078-.432-.056-.439-.034-.445-.012-.451Zm8.871-8.776v2.038h0l-.352.009-.346.026-.341.043-.335.059-.329.075-.323.091-.316.106-.309.12-.3.135-.293.149-.285.162-.276.175-.267.188-.258.2-.247.212-.237.223-.226.234-.214.245-.2.255-.19.264-.177.274-.164.282-.15.29-.136.3-.122.306-.107.313-.092.319-.076.325-.06.332-.043.337-.026.343-.009.348h-2.06l.012-.45.034-.445.056-.439.078-.432.1-.425.12-.417.139-.408.159-.4.178-.389.2-.379.214-.368.23-.356.248-.344.263-.331.279-.318.294-.3.308-.29.322-.276.335-.26.348-.245.36-.228.371-.211.383-.194.393-.176.4-.157.412-.138.421-.118.429-.1.437-.077.444-.056.45-.034.455-.011Zm8.872,8.776h-2.06l-.009-.348-.026-.343-.043-.337-.06-.332-.076-.325-.092-.319-.107-.313-.122-.306-.136-.3-.15-.29-.164-.282-.177-.274-.19-.264-.2-.255-.214-.245-.226-.234-.237-.223-.247-.212-.258-.2-.267-.188-.276-.175-.285-.162-.294-.149-.3-.135-.309-.12-.316-.106-.323-.091-.329-.075-.335-.059-.341-.043-.346-.026-.352-.009v-2.038l.455.011.45.034.444.056.437.077.429.1.422.118.413.138.4.157.393.176.383.194.371.211.36.228.348.245.335.26.322.276.308.29.293.3.279.318.263.331.247.344.231.356.213.368.2.379.178.389.159.4.139.408.12.417.1.425.078.432.057.439.034.445Zm0,0a1.03,1.03,0,0,1-2.06,0Z" transform="translate(-2315.848 -1275.72)"/></g><g transform="translate(3801.326 -3138.406)"><path class="a" d="M2413.351,1276.713a1.028,1.028,0,0,1,2.056,0Zm2.052,15.57h-2.056v-15.571h2.056v15.571Zm0,0a1.028,1.028,0,0,1-2.056,0Z" transform="translate(-2413.347 -1275.694)"/></g><g transform="translate(3681.095 -3138.371)"><path class="a" d="M1665.751,1276.932a1.033,1.033,0,0,1,2.066,0Zm2.062,22.114h-2.066v-22.114h2.065v22.113Zm0,0a1.033,1.033,0,0,1-2.066,0Z" transform="translate(-1665.747 -1275.913)"/></g><g transform="translate(3681.131 -3138.403)"><path class="a" d="M1668.031,1284.4a1.03,1.03,0,0,1-2.06-.028Zm6.81-8.685v2.038h0l-.348.009-.343.026-.338.042-.332.058-.326.074-.32.089-.314.1-.307.119-.3.133-.292.146-.284.16-.275.172-.266.185-.257.2-.247.209-.236.22-.225.231-.214.241-.2.251-.191.26-.178.27-.165.278-.152.286-.138.294-.124.3-.109.309-.094.316-.079.322-.063.328-.047.334-.031.339-.013.344-2.06-.028.017-.446.04-.441.061-.434.083-.428.1-.42.123-.412.143-.4.162-.394.18-.384.2-.374.215-.362.232-.351.248-.339.264-.327.279-.314.293-.3.307-.286.321-.271.334-.256.346-.241.358-.224.37-.208.38-.191.391-.173.4-.155.41-.136.418-.116.426-.1.433-.076.44-.055.446-.033.451-.011Zm8.872,8.776h-2.06l-.009-.348-.026-.343-.043-.337-.06-.331-.076-.326-.091-.319-.107-.313-.122-.306-.136-.3-.151-.29-.164-.282-.177-.273-.19-.264-.2-.255-.214-.245-.226-.234-.237-.223-.248-.212-.257-.2-.267-.188-.276-.175-.285-.162-.294-.149-.3-.135-.309-.12-.316-.106-.323-.091-.329-.075-.335-.059-.341-.043-.346-.026-.352-.009v-2.038l.455.011.45.034.444.056.437.077.429.1.421.118.413.138.4.157.393.176.383.194.372.211.36.228.348.245.335.261.322.276.308.29.293.3.279.318.263.332.247.344.231.356.214.368.2.379.178.389.159.4.14.408.12.417.1.425.078.432.056.439.034.445.012.45h0Zm-8.872,8.776v-2.038h0l.352-.009.346-.026.341-.043.335-.059.329-.075.323-.091.316-.106.309-.12.3-.135.293-.149.285-.162.276-.175.267-.188.257-.2.248-.212.237-.223.226-.234.214-.245.2-.255.19-.264.177-.273.164-.282.151-.29.136-.3.122-.306.107-.313.092-.319.076-.326.06-.332.043-.337.026-.343.009-.348h2.06l-.012.451-.034.445-.057.439-.078.432-.1.425-.12.417-.14.408-.159.4-.178.389-.2.379-.214.367-.231.356-.247.344-.263.331-.279.318-.293.3-.308.29-.322.276-.335.26-.348.245-.36.228-.372.211-.383.194-.393.176-.4.157-.413.138-.421.118-.429.1-.437.077-.444.056-.45.034-.455.011h0Zm-.669-.025.155-2.032h.514v2.038h-.584l-.023,0h-.04l-.021,0Zm0,0a1.019,1.019,0,1,1,.155-2.032Z" transform="translate(-1665.97 -1275.714)"/></g><g transform="translate(3713.983 -3138.401)"><path class="a" d="M1885.271,1290.824l-1.429-1.468h0l.144-.142.139-.145.134-.149.13-.152.125-.156.12-.159.115-.162.109-.165.1-.168.1-.17.094-.173.089-.175.084-.178.079-.18.073-.182.068-.184.062-.186.057-.188.051-.189.046-.191.04-.192.035-.193.029-.195.023-.2.017-.2.011-.2.006-.2v-.2l-.006-.2-.012-.2-.018-.2-.024-.2,2.042-.274.031.26.024.26.016.26.008.259v.259l-.007.258-.015.257-.023.256-.03.255-.038.254-.045.252-.052.25-.06.249-.067.246-.074.245-.081.242-.088.24-.1.237-.1.234-.109.231-.116.228-.123.225-.13.222-.136.218-.143.215-.149.211-.156.207-.162.2-.169.2-.175.194-.182.189-.188.184Zm-12.544-.232,1.484-1.414h0l.25.244.259.229.268.213.276.2.283.182.29.167.3.152.3.136.307.121.312.106.316.091.319.075.322.06.324.044.326.029.327.014.327,0,.327-.017.326-.033.324-.048.322-.063.319-.079.316-.094.312-.11.307-.125.3-.141.3-.156.29-.172.283-.187.275-.2.268-.219.259-.235,1.429,1.468-.336.3-.348.285-.359.265-.369.244-.378.224-.387.2-.394.184-.4.164-.406.143-.411.123-.416.1-.419.083-.422.063-.424.042-.425.022-.425,0-.425-.018-.424-.038-.422-.058-.419-.078-.416-.1-.412-.118-.407-.138-.4-.158-.394-.178-.387-.2-.378-.218-.37-.238-.359-.258-.349-.278-.337-.3-.324-.317Zm.235-12.409,1.429,1.468h0l-.247.248-.231.256-.215.265-.2.273-.184.28-.169.287-.153.293-.138.3-.123.3-.107.308-.092.313-.076.316-.061.319-.045.321-.029.323-.014.323,0,.324.017.323.033.322.048.321.064.318.08.316.1.312.111.308.126.3.142.3.158.293.174.287.189.28.205.272.221.265.237.257-1.484,1.414-.308-.332-.287-.344-.267-.355-.247-.365-.227-.374-.206-.382-.186-.39-.165-.4-.145-.4-.125-.407-.1-.412-.083-.415-.063-.417-.043-.419-.023-.42,0-.421.018-.42.038-.419.059-.417.079-.415.1-.411.12-.407.14-.4.16-.4.18-.39.2-.383.22-.374.241-.365.261-.356.281-.345.3-.333.32-.321Zm12.544.232-1.484,1.414h0l-.25-.244-.259-.229-.268-.213-.276-.2-.283-.182-.29-.167-.3-.152-.3-.136-.307-.121-.312-.106-.316-.091-.319-.075-.322-.06-.324-.045-.326-.029-.327-.014-.327,0-.327.017-.326.033-.324.048-.322.064-.319.079-.316.094-.312.11-.307.125-.3.141-.3.156-.29.172-.283.187-.276.2-.268.219-.259.235-1.429-1.468.336-.3.348-.284.359-.265.369-.244.378-.224.386-.2.394-.184.4-.163.406-.143.412-.123.416-.1.419-.083.422-.062.424-.042.425-.022.425,0,.425.018.424.038.422.058.419.078.416.1.412.118.407.138.4.158.394.178.387.2.378.218.37.238.36.258.349.278.337.3.324.317Zm2.4,4.912-2.042.274h0l-.019-.133-.022-.132-.025-.131-.027-.131-.03-.13-.032-.129-.035-.128-.038-.128-.04-.127-.042-.126-.045-.125-.047-.124-.05-.123-.052-.122-.055-.121-.057-.12-.06-.119-.062-.117-.064-.116-.067-.115-.069-.114-.071-.113-.073-.111-.076-.11-.078-.108-.08-.107-.082-.106-.084-.1-.087-.1-.089-.1-.091-.1-.093-.1,1.484-1.414.121.127.118.129.116.131.113.133.11.136.107.137.1.139.1.141.1.143.1.145.093.147.09.148.086.15.084.152.081.153.078.155.074.156.071.158.068.159.065.16.062.162.059.163.055.164.052.165.049.166.046.168.042.169.039.169.035.17.032.171.029.172.025.173h0Z" transform="translate(-1870.246 -1275.729)"/></g><g transform="translate(3757.688 -3138.43)"><path class="a" d="M2142.007,1276.563a1.031,1.031,0,0,1,2.062,0Zm2.06,15.618H2142v-15.618h2.062v15.618Zm0,0a1.031,1.031,0,0,1-2.062,0Z" transform="translate(-2142.005 -1275.544)"/></g><g transform="translate(3709.364 -3190)"><path class="a" d="M1880.611,969.306a1.016,1.016,0,0,1,.615-1.307,1.033,1.033,0,0,1,1.321.608Zm-3.251,21.579-1.429-1.468h0l.516-.51.492-.525.468-.538.444-.551.42-.564.4-.575.372-.586.349-.6.325-.606.3-.615.277-.624.254-.631.23-.638.206-.645.182-.65.158-.656.135-.66.111-.663.087-.666.063-.668.039-.67.015-.671-.009-.671-.032-.67-.056-.669-.08-.667-.1-.664-.128-.661-.152-.657-.176-.652-.2-.647-.223-.641,1.935-.7.247.71.221.717.194.723.168.728.142.732.115.736.089.738.062.741.036.742.01.742-.017.743-.043.742-.07.74-.1.738-.123.735-.149.731-.175.726-.2.721-.228.715-.255.708-.281.7-.307.692-.334.682-.36.672-.387.662-.413.65-.439.638-.466.625-.492.611-.518.6-.544.581-.571.565h0Zm-28.708.6,1.368-1.524.7.588.725.549.745.51.763.472.78.433.8.394.81.355.823.316.834.277.844.238.852.2.86.16.865.121.869.082.871.043.872,0,.872-.035.87-.074.867-.114.862-.153.855-.192.847-.231.838-.271.827-.31.815-.349.8-.389.786-.428.77-.468.752-.507.733-.547.712-.587.69-.627,1.429,1.468-.763.693-.788.649-.812.606-.833.562-.854.519-.872.475-.889.431-.9.388-.917.344-.929.3-.939.257-.948.213-.954.169-.96.126-.963.083-.966.039-.966,0-.965-.048-.962-.091-.958-.134-.952-.178-.944-.221-.935-.264-.924-.307-.912-.35-.9-.394-.882-.437-.865-.48-.846-.523-.826-.566-.8-.609-.779-.651Zm0,0a1.011,1.011,0,0,1-.087-1.439,1.038,1.038,0,0,1,1.454-.086Zm-2.941-6.991a1.014,1.014,0,0,1-.441,1.373,1.036,1.036,0,0,1-1.388-.437Zm2.29-23.755,1.429,1.468h0l-.57.566-.541.584-.511.6-.482.616-.453.631-.424.645-.395.658-.365.67-.336.681-.307.692-.278.7-.249.709-.22.717-.19.724-.161.729-.131.734-.1.738-.073.741-.044.743-.014.744.015.744.045.743.074.741.1.738.133.735.163.73.192.725.222.718.251.711.281.7.31.693.34.683-1.83.937-.376-.758-.344-.769-.311-.779-.278-.788-.246-.8-.213-.8-.18-.809-.148-.814-.115-.818-.082-.821-.049-.823-.017-.824.016-.824.048-.822.081-.82.113-.817.146-.813.178-.808.211-.8.243-.794.276-.786.308-.777.341-.766.373-.755.405-.743.438-.729.47-.715.5-.7.534-.682.566-.665.6-.646.63-.626Zm29.919.552-1.484,1.414-.7-.684-.726-.641-.75-.6-.773-.555-.794-.512-.814-.469-.831-.426-.848-.383-.862-.34-.875-.3-.886-.254-.9-.211-.9-.168-.909-.125-.913-.082-.916-.039-.917,0-.916.048-.913.091-.909.135-.9.178-.9.221-.886.265-.874.308-.862.352-.847.395-.831.438-.813.482-.794.526-.773.569-.75.613-.726.657L1848,960.735l.8-.727.83-.679.856-.631.88-.583.9-.534.921-.486.939-.438.955-.39.969-.341.982-.293.992-.245,1-.2,1.007-.149,1.011-.1,1.014-.053,1.015-.005,1.014.042,1.011.091,1.007.138,1,.186.992.234.982.282.97.329.956.377.94.425.922.472.9.52.881.567.857.615.831.662.8.709.775.756Zm0,0a1.012,1.012,0,0,1-.027,1.441,1.038,1.038,0,0,1-1.456-.027Z" transform="translate(-1841.522 -954.882)"/></g><g transform="translate(3721.943 -3178.997)"><path class="b" d="M1939.143,1045.184a7.905,7.905,0,0,1-11.092-.2c-6.181-6.347,4.64-15.339,5.429-15.339.769,0,11.89,9.609,5.663,15.543Z" transform="translate(-1925.121 -1028.622)"/><path class="a" d="M1921.929,1040.366l1.484-1.414h0l.25.245.259.229.268.213.276.2.283.183.29.167.3.152.3.137.307.121.312.106.316.091.32.075.322.06.324.045.326.029.327.014.327,0,.327-.017.326-.033.324-.048.322-.064.319-.079.316-.094.312-.11.307-.125.3-.141.3-.156.29-.172.283-.187.276-.2.268-.219.259-.235,1.429,1.468-.336.3-.348.285-.359.265-.369.245-.378.224-.387.2-.394.184-.4.164-.407.143-.411.123-.416.1-.419.083-.422.063-.424.042-.425.022-.426,0-.425-.018-.424-.038-.422-.058-.419-.078-.416-.1-.412-.118-.407-.138-.4-.158-.394-.178-.387-.2-.379-.218-.37-.238-.359-.258-.349-.278-.337-.3-.324-.317Zm6.171-17.064v2.038h0l.28-.047-.034.018-.144.088-.21.145-.259.193-.3.238-.33.28-.356.318-.375.353-.39.386-.4.416-.4.444-.4.469-.4.492-.384.511-.368.529-.347.543-.321.555-.29.563-.255.569-.216.572-.173.571-.126.568-.077.562-.024.555.031.547.088.539.15.532.217.529.291.526.372.525.462.524-1.484,1.414-.6-.68-.5-.706-.4-.728-.306-.744-.213-.754-.125-.757-.043-.755.032-.748.1-.737.161-.724.214-.709.261-.693.3-.675.338-.656.368-.636.393-.615.412-.593.427-.568.437-.543.441-.515.442-.486.437-.455.427-.423.414-.389.4-.353.372-.315.346-.277.317-.237.288-.2.266-.162.279-.135.485-.1h0Zm6.378,17.3-1.429-1.468h0l.457-.485.366-.49.284-.495.211-.5.145-.512.083-.524.025-.537-.031-.551-.084-.564-.135-.574-.183-.581-.227-.584-.267-.584-.3-.581-.334-.574-.361-.564-.382-.55-.4-.534-.409-.514-.415-.492-.416-.466-.412-.439-.4-.407-.387-.374-.366-.337-.339-.3-.306-.254-.266-.207-.216-.155-.149-.1-.035-.02.3.054V1023.3l.506.109.279.143.267.171.29.209.321.25.351.291.379.332.4.371.422.408.437.443.447.476.452.507.452.536.448.562.438.587.424.61.4.632.379.652.349.669.314.686.272.7.225.716.171.728.11.739.041.748-.036.752-.12.752-.211.745-.308.731-.407.71-.509.682-.611.648h0Z" transform="translate(-1919.742 -1023.302)"/></g><g transform="translate(3715.3 -3187.09)"><path class="a" d="M1880.49,1009.126a1.03,1.03,0,0,1-2.06,0Zm0-4.06v4.06h-2.06v-4.06l1.03-1.019Zm-2.06,0v-1.019h1.03Zm5.134,1.019h-4.1v-2.038h4.1Zm0-2.038a1.019,1.019,0,1,1,0,2.038ZM1907.954,974a1.03,1.03,0,0,1,2.06,0Zm0,4.06V974h2.06v4.06l-1.03,1.019Zm2.06,0v1.019h-1.03Zm-5.134-1.019h4.1v2.038h-4.1Zm0,2.038a1.019,1.019,0,1,1,0-2.038Z" transform="translate(-1878.43 -972.978)"/></g></g></svg>