<svg xmlns="http://www.w3.org/2000/svg" width="21.312" height="25.061" viewBox="0 0 21.312 25.061"><defs><style>.a,.b{fill:#74d6ee;}.a{fill-rule:evenodd;}</style></defs><g transform="translate(0 0)"><path class="a" d="M1445.318,1976.315a9.889,9.889,0,0,0-13.958.26c-7.777,8.053,5.839,19.463,6.831,19.463C1439.159,1996.037,1453.153,1983.845,1445.318,1976.315Z" transform="translate(-1427.674 -1972.267)"/><path class="b" d="M1425.313,1970.641l1.867,1.794h0l.315-.31.326-.29.337-.27.347-.251.356-.231.365-.212.373-.192.38-.174.387-.154.393-.135.4-.115.4-.1.406-.076.408-.057.41-.037.412-.017.412,0,.411.022.41.041.408.061.405.08.4.1.4.12.393.139.386.159.38.179.372.2.365.218.357.238.347.258.337.278.326.3,1.8-1.862-.423-.386-.438-.361-.452-.336-.464-.31-.476-.285-.486-.259-.5-.233-.5-.208-.512-.182-.518-.156-.523-.131-.528-.1-.531-.079-.534-.054-.535-.028-.536,0-.535.022-.534.048-.531.073-.527.1-.523.125-.518.15-.512.176-.5.2-.5.226-.487.252-.477.277-.465.3-.453.327-.439.353-.424.377-.408.4Zm7.764,21.652v-2.586h0l.353.06-.043-.024-.181-.112-.264-.183-.326-.245-.375-.3-.415-.355-.448-.4-.472-.448-.491-.489-.5-.528-.508-.563-.506-.595-.5-.624-.484-.649-.463-.671-.436-.689-.4-.7-.365-.715-.321-.722-.272-.726-.218-.724-.159-.721-.1-.713-.031-.7.038-.693.111-.684.189-.676.273-.671.365-.668.468-.666.581-.666-1.867-1.794-.754.863-.629.9-.505.924-.385.944-.268.956-.157.96-.054.958.041.949.126.936.2.919.27.9.329.879.38.857.425.832.463.808.495.781.519.752.537.721.55.688.555.654.556.617.55.578.538.536.521.493.5.448.469.4.435.351.4.3.363.251.335.205.351.171.611.125Zm8.025-21.946-1.8,1.863h0l.575.615.46.621.357.628.266.637.182.649.1.665.032.682-.039.7-.106.715-.17.728-.23.737-.286.742-.336.741-.381.738-.421.728-.454.715-.481.7-.5.677-.515.652-.523.624-.524.592-.518.556-.505.517-.487.474-.46.427-.427.377-.386.323-.335.262-.271.2-.187.121-.044.026.381-.069v2.586l.637-.139.351-.181.335-.217.365-.265.4-.317.442-.37.476-.421.506-.47.531-.517.549-.562.562-.6.569-.642.569-.68.563-.714.552-.745.533-.775.508-.8.477-.827.439-.849.395-.871.342-.891.283-.908.215-.924.138-.938.052-.948-.045-.955-.151-.954-.266-.946-.388-.928-.512-.9-.641-.865-.768-.822h0Z" transform="translate(-1422.562 -1967.232)"/></g></svg>