<svg xmlns="http://www.w3.org/2000/svg" xmlns:xlink="http://www.w3.org/1999/xlink" width="207.439" height="44.99" viewBox="0 0 207.439 44.99"><defs><style>.a{fill:url(#a);}</style><linearGradient id="a" x1="1" y1="0.5" x2="0" y2="-0.25" gradientUnits="objectBoundingBox"><stop offset="0" stop-color="#74d6ee"/><stop offset="1" stop-color="#54cfcc"/></linearGradient></defs><path class="a" d="M21.939,44.986l-1.029-.051-1.025-.1-1.021-.144L17.85,44.5l-1.007-.238-1-.284-.985-.33-.973-.377-.958-.423-.94-.47-.923-.516-.9-.562-.88-.608-.764-.584v1.873a1.1,1.1,0,0,1-2.2,0V36.524H11.8v2.191H10.305l.274.21.795.549.813.507.832.465.849.423.863.382.878.34.889.3.9.257.908.214.917.172.922.131.926.088L22,42.8l.931,0,.929-.038.928-.08.923-.122.919-.164.912-.207.9-.248.893-.292.882-.333.868-.375.855-.418.838-.46.821-.5.8-.545.781-.588.759-.631.736-.674L38.2,38.7l-.813.745-.841.7-.865.652-.889.6-.909.557-.93.511-.948.463-.963.417-.978.37-.99.322-1,.276-1.01.229-1.018.183-1.022.135L24,44.948l-1.03.042ZM6.326,41.983Zm70.755-4.028h2.2a1.1,1.1,0,0,1-2.2,0ZM11.8,36.524a1.1,1.1,0,1,1,0,2.191Zm24.88.6.549-.548.525-.563.5-.58.473-.592.447-.606.423-.618.4-.63.372-.642.347-.652.32-.662.3-.67.27-.679.245-.686.22-.693.194-.7.168-.7.144-.709.118-.713.092-.716.068-.718.041-.72L42.9,22.6l-.01-.722-.034-.72-.06-.719-.085-.717-.111-.715-.136-.71L42.3,17.59l-.187-.7-.212-.7-.238-.689,2.063-.752.264.763.236.77.207.778.18.782.15.787.123.791.095.794.067.8.038.8.01.8-.018.8-.046.8-.074.8-.1.793-.13.789-.159.786-.187.78-.215.774-.243.768-.272.761-.3.752-.328.743-.355.734-.384.723-.412.711-.44.7-.468.686-.5.671-.524.657-.553.641-.581.624L38.2,38.7Zm40.4.834V14.185h2.2v2.3l.039-.048.3-.337.313-.322.328-.308.341-.292.356-.275.369-.259.382-.241.393-.223.406-.205.416-.186.427-.166.437-.146.446-.125.454-.1.462-.081.469-.059.476-.035.481-.012h0v2.191l-.371.01-.366.027-.36.046-.355.062-.347.079-.342.1-.334.112-.327.127-.32.143-.311.157-.3.172-.293.185-.284.2-.274.212-.263.224-.252.236-.239.248-.229.259-.216.27-.2.28-.19.29-.175.3-.162.308-.148.316-.131.325-.117.332-.1.339-.084.346-.068.353-.049.359-.033.364-.014.371a1.093,1.093,0,0,1-.031.243V37.955ZM2.515,32.832l-.4-.814-.366-.826-.331-.837-.3-.847-.262-.855-.227-.863L.437,26.92.28,26.045l-.122-.879L.07,24.283.018,23.4,0,22.514l.016-.886.051-.884.086-.882.121-.878L.43,18.11l.19-.868.225-.862.259-.853.293-.846.328-.835.364-.823.4-.812.432-.8.467-.785.5-.768.535-.752.57-.734.6-.715.638-.695.672-.673.855-.781.886-.73L9.558,4.1l.938-.626.961-.575.982-.522,1-.471,1.018-.419,1.033-.366L16.538.806,17.6.543,18.661.331l1.074-.16L20.812.062,21.892.005,22.975,0l1.081.046,1.078.1,1.073.149,1.067.2L28.33.743l1.047.3,1.034.354L31.43,1.8l1,.457.983.508.962.558.939.61.913.661.887.712.683.608V4.223h2.2V8.587l-1.1,1.1,1.1-1.1v1.1H34.521a1.1,1.1,0,1,1,0-2.191h1.747l-.574-.51-.8-.643-.824-.6-.847-.55-.868-.5-.886-.458-.9-.411-.919-.366-.932-.319-.944-.274-.955-.227-.963-.181-.968-.134-.974-.088-.977-.041-.977.005-.976.051-.973.1-.968.145-.963.191-.954.238-.944.284-.931.33-.919.378-.9.425-.886.471-.867.518-.846.565L10,6.5l-.8.66-.774.707-.608.608-.576.628L6.7,9.751l-.514.662-.483.678-.452.694-.42.707-.39.72-.359.733-.328.743-.3.753-.266.762-.234.77-.2.778-.172.784-.139.788-.11.794-.077.8-.047.8-.014.8.015.8.049.8.078.8.111.794.142.79.173.785.205.778.236.772.267.764.3.755.33.745.363.734a1.1,1.1,0,0,1-1.95,1.007Zm19.409.208L21.471,33l-.451-.061-.446-.086-.443-.1-.439-.128-.435-.149-.428-.17-.419-.192L18,31.9l-.4-.235-.393-.257-.382-.276-.373-.3-.359-.319-.346-.341L15.1,29.44l-.532-.759L14.14,27.9l-.326-.8-.227-.809-.133-.814-.045-.81.034-.8.107-.792.171-.778.228-.763.279-.743.322-.726.36-.706.393-.684.418-.661.44-.637.455-.611.465-.583.471-.554.47-.523.466-.49.456-.454.441-.418.421-.379.4-.339.367-.3.339-.254.307-.213.283-.175.3-.144.518-.106v0l.539.117.3.154.285.184.309.224.342.269.375.313.4.357.429.4.449.439.466.476.476.51.482.545.482.575L28.13,17l.466.631.453.655.431.68.4.7.373.72.335.738.289.754.239.769.183.783.116.8.045.8-.039.808-.128.809-.225.8-.328.786-.434.763-.543.733-.651.7-.358.327-.371.305L28,31.338l-.394.263-.4.241-.412.219-.419.2-.427.175-.433.155-.439.132-.443.11-.448.089-.45.067-.451.045-.455.024-.453,0Zm146.9-2.131H171a1.091,1.091,0,1,1-2.182,0Zm-10.1,0h2.2a1.1,1.1,0,0,1-2.2,0Zm46.516-.025h2.191a1.1,1.1,0,0,1-2.191,0ZM68.81,30.841h2.2a1.1,1.1,0,0,1-2.2,0Zm33.971-.006h2.2a1.1,1.1,0,0,1-2.2,0Zm79.628,0-.012-.374-.033-.368-.054-.364-.076-.357-.1-.352-.117-.347-.136-.339L181.729,28l-.175-.328-.194-.319-.212-.312-.23-.3-.248-.3-.265-.285-.282-.275-.3-.266-.314-.254-.329-.242-.343-.23-.357-.217-.371-.2-.383-.19-.4-.175-.408-.159-.418-.144-.429-.128-.438-.11-.449-.094-.456-.076-.465-.057-.472-.038-.48-.018H171v7.62h-2.182V14.121h2.182v6.856h2.158v0h-.008l.423-.016.416-.033.41-.049.4-.067.394-.081.387-.1.377-.112.369-.126.358-.139.348-.153.338-.166.326-.179.314-.19.3-.2.289-.212.276-.221.262-.232.247-.241.234-.249.218-.257.2-.265.187-.272.17-.279.154-.284.138-.291.121-.3.1-.3.086-.307.068-.311.049-.316.031-.319.013-.325v0l2.185.016-.017.455-.044.451-.069.444-.1.436-.12.428-.145.419-.166.41-.189.4-.211.389-.231.377-.251.365-.27.353-.287.34-.307.327-.322.313-.338.3-.354.284-.368.271-.383.255-.4.239-.41.224-.306.151.1.038.482.212.468.231.454.249.44.266.424.284.409.3.391.317.374.333.356.349.337.364.318.378.3.392.276.407.254.419.23.431.207.444.183.455.157.465.13.474.1.484.074.491.045.5.015.5a1.093,1.093,0,1,1-2.185,0ZM197.5,31.91l-.481-.036-.473-.06-.466-.083-.457-.105-.45-.128-.439-.148-.43-.17-.419-.188-.408-.209-.4-.227-.383-.246-.371-.263-.357-.28-.343-.3-.329-.312-.312-.328-.3-.342-.281-.356-.264-.37-.246-.382-.228-.4-.209-.407-.19-.418-.169-.428-.149-.439-.127-.447-.106-.457-.083-.464-.06-.472-.036-.478-.013-.485.013-.484.036-.479.06-.472.083-.465.106-.456.127-.448.149-.438.169-.429.19-.418.209-.407.228-.4.246-.382.264-.37.281-.355.3-.342.312-.328.329-.312.343-.3.357-.28.37-.263.384-.246.4-.228.408-.208.419-.189.43-.169.439-.148.449-.127.458-.105.465-.084.473-.059.481-.037.485-.013v2.191l-.374.01-.37.028-.363.046-.357.065-.351.08-.344.1-.338.113-.329.13-.321.145-.312.159-.3.175-.294.188-.285.2-.275.215-.264.228-.252.24-.241.251-.228.264-.216.274-.2.284-.189.293-.175.3-.16.312-.146.32-.13.329-.113.337-.1.343-.081.35-.064.356-.046.363-.029.368-.009.374.01.374.028.369.046.363.064.355.081.35.1.344.113.336.13.329.145.32.16.312.175.3.189.294.2.283.216.274.228.263.241.252.252.239.264.228.275.216.285.2.294.188.3.175.312.16.321.145.33.13.337.113.344.1.351.081.357.064.363.046.37.028.374.01h.112l.112,0,.111,0,.112-.005.112-.008.11-.009.112-.012.111-.013.11-.014.109-.016.11-.017.109-.02.109-.021.109-.022.108-.024.107-.027.108-.027.107-.03.106-.031.106-.032.105-.034.105-.036.1-.038.1-.039.1-.04.1-.043.1-.043.1-.046.1-.047.1-.049.1-.049.1-.052,1.032,1.934-.129.067-.13.066-.131.063-.131.06-.132.059-.133.058-.133.055-.134.052-.137.051-.136.049-.137.046-.137.044-.138.043-.14.041-.139.038-.139.036-.14.033-.141.032-.141.029-.142.028-.141.025-.143.023-.143.021-.143.019-.144.016-.144.014-.144.013-.145.01-.144.008-.146.005-.146,0h-.145Zm-110.945.012h-.468l-.022,0H86.04l-.022,0h-.042l-.025,0-.022,0h-.02l-.022,0-.023,0a1.1,1.1,0,1,1,.166-2.184h.016l.017,0h.05l.017,0h.446l.375-.01.368-.028.364-.046.357-.064.351-.081.345-.1.337-.114.329-.129.321-.145.313-.16.3-.175.293-.188.285-.2.275-.215.264-.228.252-.24.241-.252.229-.262.215-.274.2-.284.189-.293.175-.3.161-.312.145-.32.13-.328.114-.337.1-.343.081-.35.064-.356.047-.362.028-.369.009-.374h2.2l-.012.484-.037.479-.06.472-.083.465-.106.456-.127.448-.149.439-.169.428-.189.418-.21.407-.228.4-.246.382-.264.37-.28.356-.3.342-.312.328-.328.311-.343.3-.357.28-.37.263-.384.245-.4.228-.408.208-.419.189-.429.169-.44.149-.449.128-.458.105-.465.083-.474.06-.48.036-.485.013ZM61.067,31.91l-.48-.036-.473-.06-.466-.083-.457-.106-.449-.127-.44-.149-.43-.169-.419-.189-.408-.208-.4-.228-.383-.245-.371-.263-.357-.28-.343-.3-.328-.312-.313-.327-.3-.342-.281-.356-.264-.37-.246-.382-.228-.4-.209-.408-.19-.418-.169-.428-.148-.439-.128-.448-.106-.456-.083-.464-.06-.473-.036-.479-.013-.484L52.108,22l.036-.479.06-.472.083-.465.106-.456.128-.448.148-.439.169-.428.19-.419.209-.407.228-.4.246-.382.264-.37.281-.356.3-.342.313-.328.328-.311.342-.3.357-.28.371-.263.383-.245.4-.228.408-.208.419-.19.429-.168.44-.148.449-.128.457-.105.466-.083.473-.059.48-.037.485-.013v2.191l-.374.01-.369.028-.363.046-.358.064-.351.081-.344.1-.338.113-.328.13-.321.145-.313.16-.3.175-.294.188-.285.2-.274.216-.264.228-.252.24-.24.251-.229.263-.216.274-.2.284-.188.293-.175.3-.16.312-.145.32-.13.329-.114.336-.1.344-.081.35-.064.356-.046.362-.028.369-.01.373.01.374.028.368.046.363.064.356.081.35.1.343.114.337.13.328.145.32.16.312.175.3.188.293.2.284.216.274.229.263.24.252.252.24.264.228.274.215.285.2.294.188.3.175.313.16.321.145.329.129.337.114.344.1.351.081.358.064.363.046.369.028.374.01h0l.372-.009.365-.027.36-.045L63,29.587l.348-.079.341-.1.334-.112.328-.127.32-.143.311-.157.3-.171.292-.185.284-.2.274-.212.263-.225.252-.236.24-.248.229-.259.216-.27.2-.28.191-.29L67.9,26l.162-.308.147-.316.132-.325.116-.332.1-.339.085-.347.068-.352.05-.358.032-.365.014-.348V14.147h2.2v8.407c0,.02,0,.04,0,.061h0v3.11h0v5.116h-2.2V28.535l-.007.009-.3.337-.312.322-.328.308-.342.292-.355.275-.369.259-.382.241-.394.223-.4.205-.417.186-.427.166-.437.147-.445.124-.455.1-.462.081-.469.059-.475.036-.481.013Zm59.9-.008-.452-.041-.45-.063-.446-.084-.444-.105-.438-.127-.434-.149-.428-.17-.42-.191-.412-.213-.4-.235-.394-.256-.382-.277-.373-.3-.359-.319-.345-.34h0l-.328-.357-.306-.37-.285-.382-.264-.392-.241-.4-.22-.41-.2-.419-.176-.426-.154-.433L112.477,25l-.111-.442-.089-.446-.067-.448-.046-.451-.024-.452,0-.453.019-.452.041-.451.062-.448.084-.446.106-.442.127-.437.149-.433.171-.426.192-.419.213-.411.235-.4.257-.393.277-.382.3-.371.32-.358.341-.346.358-.327.371-.306.382-.284.393-.263.4-.24.412-.22.419-.2.427-.176.434-.154.438-.131.443-.111.447-.089.45-.068.452-.045.453-.024.454,0,.453.019.453.04.449.062.447.084.444.106.438.127.434.149.427.169.419.192.412.213.4.234.394.257.383.277.372.3.359.319.346.34-1.581,1.52-.267-.263-.276-.246-.285-.23-.293-.212-.3-.2-.309-.179-.316-.163-.322-.147-.328-.131-.332-.114-.338-.1-.34-.081-.343-.064-.346-.049-.347-.031-.349-.015-.348,0-.348.019-.347.035-.346.051-.343.068-.34.085-.337.1-.332.117-.328.135-.321.151-.316.168-.309.184-.3.2-.294.218-.284.235-.277.253-.264.266-.246.275-.229.285-.213.292-.2.3-.18.309-.164.315-.147.321-.131.327-.114.331-.1.336-.081.34-.065.342-.048.346-.032.346-.015.347,0,.347.019.347.035.347.051.346.068.342.085.339.1.336.118.331.135.327.151.321.169.314.185.309.2.3.22.293.236.284.253.275.266.263.276.246.285.23.294.212.3.2.31.18.316.163.321.147.328.131.333.114.337.1.34.081.344.065.346.047.347.031.348.015.349,0,.348-.019.347-.034.346-.052.343-.068.34-.085.337-.1.332-.118.328-.134.321-.151.316-.168.309-.184.3-.2.293-.218.286-.236.276-.252,1.524,1.578-.359.327-.371.306-.382.284-.393.263-.4.24-.412.22-.42.2-.427.175-.434.154-.438.132-.444.11-.446.089-.45.068-.452.045-.453.024-.454,0Zm28.084-1.1h2.206a1.1,1.1,0,0,1-2.206,0Zm-12.749,0H138.5a1.1,1.1,0,0,1-2.206,0Zm22.428.1V14.121h2.2V30.909Zm46.516-.025V22.452l-.008-.336-.029-.368-.046-.363-.064-.356-.081-.35-.1-.344L204.8,20l-.13-.329-.146-.32-.16-.312-.175-.3L204,18.441l-.2-.284-.216-.274-.229-.264-.24-.251-.252-.24L202.6,16.9l-.274-.215-.284-.2-.3-.188-.3-.175-.312-.159-.321-.145-.329-.13-.338-.113-.344-.1-.351-.08-.357-.065-.364-.046-.369-.028-.374-.01V13.055l.485.013.48.037.473.059.466.084.458.105.449.127.44.148.429.169.418.189.409.208.4.228.383.246.371.263.357.28.343.3.329.312.313.328.261.3v-2.3h2.192V22.3l0,.192h0c0,.035,0,.07-.005.1v8.29Zm-102.46-.049V15.265H98.162V13.1H109.6v2.168h-4.621V30.835ZM201.4,28.88a1.1,1.1,0,1,1,1.032,1.934Zm-52.353,1.926V23.6H138.5v7.2H136.3v-16.6h2.207v7.2h10.542v-7.2h2.207v16.6Zm-22.416-3.1.154-.152.148-.157.143-.159.139-.165.132-.167.128-.171.122-.174.117-.177.112-.18.106-.184.1-.185.1-.188.089-.191.084-.194.078-.2.072-.2.067-.2.06-.2.055-.2.049-.2.043-.207.037-.208.031-.209.024-.211.018-.212.013-.212.006-.213v-.213l-.007-.213-.013-.214-.02-.215-.025-.214h0l-.021-.142-.024-.142-.026-.141-.029-.14-.032-.14-.035-.139-.037-.138-.041-.138-.042-.136-.046-.136-.048-.134-.05-.133-.053-.132-.056-.131-.059-.13-.061-.13-.064-.128L128,19.081l-.068-.125-.071-.124-.073-.122-.076-.122-.078-.12-.08-.118-.084-.116-.086-.116-.087-.113-.09-.112-.093-.11-.094-.109-.1-.107-.1-.1,1.581-1.52.13.137.126.139.123.141.121.143.117.146.114.148.112.149.108.152.105.154.1.156.1.157.1.159.093.161.089.163.086.166.083.166.08.168.076.169.073.17.069.173.066.174.063.176.058.176.056.177.052.179.049.18.045.181.041.183.038.183.035.184.031.184.027.185h0L131,21.5l.025.28.017.279.008.278v.278l-.008.277-.016.276-.023.275-.032.274-.04.273-.049.271-.055.269-.064.267-.072.265-.078.263-.086.261-.094.257-.1.255-.109.252-.116.249-.124.246-.13.241-.138.239-.146.235-.152.23-.159.227-.167.222-.174.218-.179.213-.187.209-.193.2-.2.2Zm4.333-6.481h0Zm-16.182,7.808h0ZM93.836,22.488l-.009-.373-.028-.368-.047-.363-.064-.356-.081-.35-.1-.343L93.4,20l-.13-.329-.145-.32-.161-.312-.175-.3L92.6,18.44l-.2-.284-.216-.274-.228-.264-.241-.251-.252-.24-.264-.228-.275-.215-.285-.2-.293-.188-.3-.175-.313-.159-.321-.146-.329-.13-.337-.113-.345-.1-.351-.081-.357-.064-.364-.046-.368-.028-.375-.01V13.055l.485.013.48.037.473.059.466.083.458.105.449.128.44.148.429.169.419.189.408.208.4.228.384.245.37.264.357.279.343.3.328.311.312.328.3.342.28.355.264.37.246.382.228.4.21.408.189.418.169.429.149.438.127.448.106.456.083.465.06.472L96.02,22l.012.484Zm-30.109-6.91.658-2.09a1.1,1.1,0,0,1-.658,2.09Zm-.067-.02-.066-.02-.067-.02-.067-.018-.067-.018-.067-.017-.067-.016-.068-.016-.068-.015-.067-.014-.068-.014-.068-.013-.068-.014-.068-.012-.068-.012-.067-.011-.068-.01-.068-.009-.068-.009-.069-.008-.068-.008-.067-.006-.069-.006-.068-.005-.068,0-.07,0-.068,0-.068,0-.07,0-.068,0h-.139V13.055h.18l.091,0,.089,0,.09,0,.091,0,.088.006.09.006.09.007.089.008.09.009.09.01.088.01.089.012.089.013.089.013.088.014.089.015.088.015.088.016.088.018.088.018.087.019.088.02.087.021.087.022.087.023.086.023.086.023.087.025.086.025.086.027-.658,2.09ZM42.322,14.1a1.1,1.1,0,0,1,1.408.653l-2.063.751A1.094,1.094,0,0,1,42.322,14.1Zm67.276-1a1.084,1.084,0,1,1,0,2.168ZM97.064,14.18a1.092,1.092,0,0,1,1.1-1.085v2.168A1.091,1.091,0,0,1,97.064,14.18Zm84.1.216v-.3h2.185v.317ZM181.169,14.4Zm-32.12-.184a1.1,1.1,0,0,1,2.207,0Zm-12.749,0a1.1,1.1,0,0,1,2.207,0Zm-59.215-.026a1.1,1.1,0,0,1,2.2,0Zm128.159-.038a1.1,1.1,0,1,1,2.192,0Zm-136.43,0a1.1,1.1,0,0,1,2.2,0Zm100.011-.026a1.091,1.091,0,1,1,2.182,0Zm-10.1,0a1.1,1.1,0,0,1,2.2,0Zm22.441-.026a1.093,1.093,0,1,1,2.185,0ZM37.8,4.223a1.1,1.1,0,0,1,2.2,0Z"/></svg>